<?xml version="1.0" encoding="iso-8859-1"?>
<!-- Generator: Adobe Illustrator 19.0.0, SVG Export Plug-In . SVG Version: 6.00 Build 0)  -->
<svg version="1.1" id="Layer_1" xmlns="http://www.w3.org/2000/svg" xmlns:xlink="http://www.w3.org/1999/xlink" x="0px" y="0px"
	 viewBox="0 0 488.311 488.311" style="enable-background:new 0 0 488.311 488.311;" xml:space="preserve">
<g id="XMLID_802_">
	<g id="XMLID_474_">
		<rect x="251.785" y="289.935" style="fill:#5EBAE7;" width="228.895" height="190.746"/>
	</g>
	<g id="XMLID_473_">
		<rect x="274.675" y="289.935" style="fill:#9ED6F1;" width="183.117" height="160.227"/>
	</g>
	<g id="XMLID_471_">
		<polyline style="fill:#3AAA35;" points="251.785,7.631 480.681,7.631 480.681,289.935 251.785,289.935 		"/>
	</g>
	<g id="XMLID_472_">
		<polyline style="fill:#89CC86;" points="274.675,289.935 457.791,289.935 457.791,7.631 274.675,7.631 274.675,289.935 		"/>
	</g>
	<g id="XMLID_457_">
		<path style="fill:#3AAA35;" d="M183.117,211.49V7.631h-76.299V211.49C49.55,228.035,7.63,280.747,7.63,343.344
			c0,75.849,61.488,137.337,137.337,137.337s137.337-61.488,137.337-137.337C282.305,280.747,240.384,228.035,183.117,211.49z"/>
	</g>
	<g id="XMLID_455_">
		<path style="fill:#5EBAE7;" d="M15.26,335.714c52.823-51.018,144.967,30.519,144.967,30.519l53.409,7.63l68.669-38.149
			l-15.26,68.669l-61.039,61.039l-61.039,15.26l-76.298-22.89l-53.409-68.67l-7.63-38.149L15.26,335.714z"/>
	</g>
	<path style="fill:#89CC86;" d="M160.227,229.911V7.631h-30.519v222.281c-55.992,7.461-99.188,55.4-99.188,113.433
		c0,63.208,51.24,114.448,114.448,114.448s114.448-51.24,114.448-114.448C259.415,285.31,216.219,237.372,160.227,229.911z"/>
	<g id="XMLID_454_">
		<path style="fill:#9ED6F1;" d="M31.679,326.992c-0.764,5.341-1.159,10.8-1.159,16.352c0,63.208,51.24,114.448,114.448,114.448
			c60.461,0,109.972-46.883,114.161-106.278c0,0-30.343,31.024-81.461,16.355c-51.12-14.671-102.428-63.399-138.974-49.05
			L31.679,326.992z"/>
	</g>
	<g id="XMLID_134_">
		<rect x="76.299" y="0.001" style="fill:#1D1D1B;" width="137.337" height="15.26"/>
	</g>
	<g id="XMLID_132_">
		<path style="fill:#FFFFFF;" d="M100.727,453.615c-28.305-12.378-50.7-34.787-63.06-63.098l13.984-6.105
			c10.817,24.778,30.417,44.39,55.188,55.222L100.727,453.615z"/>
	</g>
	<g id="XMLID_131_">
		<path style="fill:#FFFFFF;" d="M149.597,463.792c-11.063,0-22.031-1.481-32.6-4.403l4.066-14.708
			c9.243,2.555,18.844,3.851,28.533,3.851L149.597,463.792L149.597,463.792z"/>
	</g>
	<g id="XMLID_212_">
		<rect x="305.194" y="442.531" style="fill:#FFFFFF;" width="129.707" height="15.26"/>
	</g>
	<path style="fill:#1D1D1B;" d="M244.155,0.001v237.788c-15.285-14.298-33.589-25.298-53.409-31.914V0.001H99.188v205.874
		c-27.378,9.138-51.893,26.607-69.501,49.638C10.266,280.916,0,311.287,0,343.344C0,423.279,65.032,488.31,144.967,488.31
		c38.336,0,73.238-14.964,99.189-39.349v39.349h244.155V0.001H244.155z M41.81,264.781c16.813-21.99,40.651-38.313,67.126-45.961
		l5.513-1.592V15.261h61.038v15.26h-38.15v15.26h38.15V68.67h-15.26v15.26h15.26v22.89h-38.15v15.26h38.15v22.89h-15.26v15.26h15.26
		v22.889h-38.15v15.26h38.15v18.851l5.513,1.592c26.474,7.648,50.313,23.971,67.125,45.962c13.893,18.17,22.53,39.19,25.438,61.549
		c-8.821,9.165-37.099,35.435-73.966,38.391c-24.952,2.004-49.36-7.133-72.529-27.151c-33.66-29.083-65.878-27.458-86.972-20.976
		c-9.55,2.934-17.657,7.081-23.887,10.934C18.958,304.721,27.669,283.276,41.81,264.781z M144.967,473.052
		c-70.373,0-127.836-56.336-129.661-126.278c10.634-8.73,53.97-38.968,101.784,2.344c23.943,20.688,49.365,31.139,75.683,31.138
		c2.672,0,5.354-0.107,8.043-0.323c32.742-2.626,58.935-20.629,73.821-33.573C273.028,416.492,215.48,473.052,144.967,473.052z
		 M259.415,473.052v-40.834c19.117-24.562,30.52-55.41,30.52-88.874c0-15.801-2.499-31.19-7.354-45.779h167.581v-15.26H276.5
		c-4.386-9.396-9.813-18.369-16.253-26.792c-0.271-0.354-0.558-0.695-0.832-1.046V15.261h213.636v76.298h-38.149v15.26h38.149v22.89
		h-15.26v15.26h15.26v22.89h-38.149v15.26h38.149v22.889h-15.26v15.26h15.26v22.89h-38.149v15.26h38.149v22.89h-15.26v15.26h15.26
		v22.889h-38.149v15.26h38.149v22.89h-15.26v15.26h15.26v22.89h-38.149v15.26h38.149v61.039H259.415V473.052z"/>
</g>
<g>
</g>
<g>
</g>
<g>
</g>
<g>
</g>
<g>
</g>
<g>
</g>
<g>
</g>
<g>
</g>
<g>
</g>
<g>
</g>
<g>
</g>
<g>
</g>
<g>
</g>
<g>
</g>
<g>
</g>
</svg>
