<?xml version="1.0" encoding="UTF-8" standalone="no"?>
<!-- Uploaded to: SVG Repo, www.svgrepo.com, Generator: SVG Repo Mixer Tools -->

<svg
   width="800px"
   height="800px"
   viewBox="0 0 512 512"
   version="1.1"
   id="svg4"
   sodipodi:docname="water-recycling-svgrepo-com.svg"
   inkscape:version="1.2.2 (b0a8486541, 2022-12-01)"
   xmlns:inkscape="http://www.inkscape.org/namespaces/inkscape"
   xmlns:sodipodi="http://sodipodi.sourceforge.net/DTD/sodipodi-0.dtd"
   xmlns="http://www.w3.org/2000/svg"
   xmlns:svg="http://www.w3.org/2000/svg">
  <defs
     id="defs8" />
  <sodipodi:namedview
     id="namedview6"
     pagecolor="#ffffff"
     bordercolor="#000000"
     borderopacity="0.25"
     inkscape:showpageshadow="2"
     inkscape:pageopacity="0.0"
     inkscape:pagecheckerboard="0"
     inkscape:deskcolor="#d1d1d1"
     showgrid="false"
     inkscape:zoom="0.86438625"
     inkscape:cx="349.38085"
     inkscape:cy="414.1667"
     inkscape:window-width="1920"
     inkscape:window-height="1052"
     inkscape:window-x="1280"
     inkscape:window-y="0"
     inkscape:window-maximized="1"
     inkscape:current-layer="svg4" />
  <path
     d="m 467.8,41.44 -151.2,22.6 22.6,151.06 41.2,-55.5 c 42.2,54.2 45.1,132 2.2,190 -40.3,54.4 -108.9,75.3 -170.2,57.6 l 6.5,43.6 c 28.7,5.5 58.2,4.4 86.2,-3.1 37.4,-6 73.3,-22.1 103.1,-47.7 -49.1,54.6 -122.6,77.5 -191.7,64.3 l -55.8,8.3 c 99,43.7 218.4,14.8 285.5,-75.9 C 515.3,303.3 505.6,176 428.7,94.24 Z"
     id="path266"
     style="fill:#0044aa" />
  <path
     d="m 254.9,19.34 c -72,0.4 -143,33.5 -189.17,95.86 -69.798,94.4 -59.097,223.3 19.9,305 L 48.43,470.6 199.6,447.9 177,296.7 133.8,355 C 89.73,300.6 86.13,221.4 129.7,162.5 160.3,121 207.5,99.04 255.4,98.84 c 16.4,-0.1 32.8,2.26 48.7,7.36 l -7,-46.46 c -23.9,-4.9 -47.9,-5 -71,-1 -59.3,7.3 -114,39.9 -148.17,91.16 C 113.6,84.04 181.7,44.04 254,42.24 c 1.6,-0.1 3.3,-0.1 5,-0.1 14.8,0 29.7,1.6 44.6,4.9 l 48.6,-7.3 C 321,25.84 287.9,19.14 254.9,19.34 Z"
     id="path2"
     style="fill:#800000" />
</svg>
