<?xml version="1.0" encoding="iso-8859-1"?>
<!-- Generator: Adobe Illustrator 19.0.0, SVG Export Plug-In . SVG Version: 6.00 Build 0)  -->
<svg version="1.1" id="Layer_1" xmlns="http://www.w3.org/2000/svg" xmlns:xlink="http://www.w3.org/1999/xlink" x="0px" y="0px"
	 viewBox="0 0 512 512" style="enable-background:new 0 0 512 512;" xml:space="preserve">
<path style="fill:#8AE9FF;" d="M490.761,326.438L277.894,136.493c-12.474-11.131-31.315-11.131-43.789,0L21.239,326.438
	c-22.539,20.112-8.313,57.421,21.895,57.421h425.732C499.074,383.86,513.299,346.55,490.761,326.438z"/>
<g>
	<path style="fill:#248A9C;" d="M468.866,394.06H43.134c-18.031,0-33.833-10.886-40.258-27.735
		c-6.424-16.849-1.882-35.493,11.572-47.497l212.866-189.945c16.353-14.593,41.019-14.592,57.372-0.001l212.866,189.945l0,0
		c13.453,12.005,17.996,30.649,11.572,47.497C502.699,383.174,486.897,394.06,468.866,394.06z M256,138.341
		c-5.4,0-10.799,1.921-15.104,5.763L28.03,334.048c-8.599,7.671-8.784,17.95-6.093,25.009c2.693,7.06,9.674,14.603,21.196,14.603
		h425.732c11.523,0,18.505-7.544,21.196-14.603c2.692-7.059,2.505-17.337-6.093-25.009L271.103,144.103
		C266.8,140.263,261.399,138.341,256,138.341z"/>
	<path style="fill:#248A9C;" d="M126.465,287.454c-2.806,0-5.6-1.151-7.615-3.409c-3.751-4.203-3.382-10.651,0.82-14.402l5.234-4.67
		c4.206-3.75,10.653-3.381,14.402,0.82c3.751,4.203,3.382,10.651-0.82,14.402l-5.234,4.67
		C131.307,286.6,128.881,287.454,126.465,287.454z"/>
	<path style="fill:#248A9C;" d="M157.994,259.32c-2.806,0-5.599-1.151-7.614-3.409c-3.752-4.203-3.383-10.651,0.819-14.401
		l96.307-85.937c4.205-3.753,10.652-3.382,14.401,0.819c3.752,4.203,3.383,10.651-0.819,14.401l-96.307,85.937
		C162.836,258.466,160.41,259.32,157.994,259.32z"/>
</g>
<g>
</g>
<g>
</g>
<g>
</g>
<g>
</g>
<g>
</g>
<g>
</g>
<g>
</g>
<g>
</g>
<g>
</g>
<g>
</g>
<g>
</g>
<g>
</g>
<g>
</g>
<g>
</g>
<g>
</g>
</svg>
