<?xml version="1.0" encoding="UTF-8" standalone="no"?>
<!-- Uploaded to: SVG Repo, www.svgrepo.com, Generator: SVG Repo Mixer Tools -->

<svg
   version="1.1"
   id="Layer_1"
   viewBox="0 0 456.47701 456.47701"
   xml:space="preserve"
   sodipodi:docname="water-heater-svgrepo-com.svg"
   inkscape:version="1.2.2 (b0a8486541, 2022-12-01)"
   width="456.47699"
   height="456.47699"
   xmlns:inkscape="http://www.inkscape.org/namespaces/inkscape"
   xmlns:sodipodi="http://sodipodi.sourceforge.net/DTD/sodipodi-0.dtd"
   xmlns="http://www.w3.org/2000/svg"
   xmlns:svg="http://www.w3.org/2000/svg"><defs
   id="defs29" /><sodipodi:namedview
   id="namedview27"
   pagecolor="#ffffff"
   bordercolor="#000000"
   borderopacity="0.25"
   inkscape:showpageshadow="2"
   inkscape:pageopacity="0.0"
   inkscape:pagecheckerboard="0"
   inkscape:deskcolor="#d1d1d1"
   showgrid="false"
   inkscape:zoom="0.81191649"
   inkscape:cx="-16.627326"
   inkscape:cy="449.55362"
   inkscape:window-width="1920"
   inkscape:window-height="1052"
   inkscape:window-x="1280"
   inkscape:window-y="0"
   inkscape:window-maximized="1"
   inkscape:current-layer="Layer_1" />
<path
   style="display:inline;fill:#e6e6e6"
   d="M 359.42849,447.522 H 97.048495 c -17.367,0 -31.445,-14.078 -31.445,-31.446 V 40.401 c 0,-17.367 14.078,-31.445 31.445,-31.445 H 359.42749 c 17.367,0 31.446,14.078 31.446,31.445 v 375.675 c 10e-4,17.368 -14.078,31.446 -31.445,31.446 z"
   id="path2" />
<path
   style="fill:#f2f2f2"
   d="m 97.048495,422.446 c -3.512,0 -6.368,-2.857 -6.368,-6.369 V 40.401 c 0,-3.512 2.857,-6.369 6.368,-6.369 H 359.42749 c 3.512,0 6.369,2.857 6.369,6.369 v 375.675 c 0,3.512 -2.857,6.369 -6.369,6.369 H 97.048495 Z"
   id="path4" />
<circle
   style="fill:#5fbcd3"
   cx="228.23849"
   cy="358.45801"
   r="50.150002"
   id="circle6" />
<path
   style="fill:#d7eef4"
   d="m 185.43299,393.918 c 19.584,19.584 51.338,19.584 70.923,0 19.584,-19.584 19.584,-51.338 0,-70.923"
   id="path8" />
<path
   style="fill:#4d4d4d"
   d="m 228.23849,367.412 c -4.946,0 -8.956,-4.01 -8.956,-8.956 v -16.608 c 0,-4.946 4.01,-8.956 8.956,-8.956 4.946,0 8.956,4.01 8.956,8.956 v 16.608 c 0,4.946 -4.01,8.956 -8.956,8.956 z"
   id="path10" />
<rect
   x="130.91899"
   y="75.396004"
   style="display:inline;fill:#ffeeaa"
   width="194.63901"
   height="194.63901"
   id="rect12" />
<polygon
   style="display:inline;fill:#fff6d5"
   points="158.681,270.037 353.319,270.037 353.319,75.398 "
   id="polygon14"
   transform="translate(-27.761505)" />
<path
   style="display:inline;fill:#f4550f"
   d="m 267.6265,236.01 c -1.408,0 -2.836,-0.333 -4.167,-1.035 -4.376,-2.306 -6.053,-7.722 -3.747,-12.097 14.42,-27.362 9.615,-47.541 2.412,-60.13 -3.801,13.229 -11.682,22.329 -12.193,22.908 -2.447,2.777 -6.351,3.761 -9.822,2.479 -3.472,-1.282 -5.797,-4.569 -5.851,-8.269 -0.318,-21.607 -7.278,-37.305 -14.653,-47.928 -0.677,14.842 -7.501,28.898 -19.319,38.747 -11.779,9.816 -16.019,26.035 -10.549,40.359 l 4.601,12.051 c 1.765,4.621 -0.55,9.796 -5.172,11.561 -4.619,1.766 -9.798,-0.55 -11.561,-5.172 l -4.602,-12.051 c -8.2,-21.476 -1.844,-45.793 15.816,-60.509 10.456,-8.713 15.05,-22.367 11.99,-35.63 l -2.958,-12.817 c -0.806,-3.496 0.55,-7.136 3.45,-9.25 2.899,-2.114 6.779,-2.294 9.861,-0.459 1.232,0.734 23.297,14.238 34.543,44.775 -0.086,-0.43 -0.184,-0.861 -0.294,-1.293 -0.923,-3.634 0.515,-7.457 3.603,-9.583 3.088,-2.124 7.173,-2.103 10.237,0.057 0.519,0.367 12.814,9.158 20.837,25.745 7.383,15.263 12.591,40.276 -4.529,72.758 -1.608,3.044 -4.717,4.783 -7.933,4.783 z"
   id="path16" />
<g
   id="g24"
   transform="translate(-27.763005)">
	<path
   style="fill:#333333"
   d="M 387.19,0 H 124.81 c -22.277,0 -40.4,18.124 -40.4,40.401 v 375.675 c 0,22.277 18.124,40.401 40.4,40.401 h 262.382 c 22.277,0 40.401,-18.124 40.401,-40.401 V 40.401 C 427.591,18.124 409.467,0 387.19,0 Z m 22.49,416.077 c 0,12.401 -10.089,22.49 -22.49,22.49 H 124.81 c -12.401,0 -22.489,-10.089 -22.489,-22.49 V 40.401 c 0,-12.401 10.088,-22.49 22.489,-22.49 h 262.379 c 12.401,0 22.49,10.089 22.49,22.49 v 375.675 h 0.001 z"
   id="path18"
   sodipodi:nodetypes="ssssssscsssssssssccs" />
	<path
   style="fill:#333333"
   d="m 256,299.351 c -32.591,0 -59.106,26.515 -59.106,59.106 0,32.591 26.515,59.106 59.106,59.106 32.591,0 59.106,-26.515 59.106,-59.106 0,-32.591 -26.515,-59.106 -59.106,-59.106 z m 0,100.3 c -22.714,0 -41.194,-18.48 -41.194,-41.194 0,-22.714 18.48,-41.194 41.194,-41.194 22.714,0 41.194,18.48 41.194,41.194 0,22.714 -18.48,41.194 -41.194,41.194 z"
   id="path20" />
	<path
   style="fill:#333333"
   d="M 353.319,66.442 H 158.681 c -4.946,0 -8.956,4.01 -8.956,8.956 v 194.639 c 0,4.946 4.01,8.956 8.956,8.956 H 353.32 c 4.946,0 8.956,-4.01 8.956,-8.956 V 75.398 c -0.001,-4.946 -4.011,-8.956 -8.957,-8.956 z m -8.955,194.639 H 167.636 V 84.354 h 176.727 v 176.727 z"
   id="path22" />
</g>
</svg>
